<svg viewBox="0 0 190 190" xmlns="http://www.w3.org/2000/svg" xml:space="preserve" fill-rule="evenodd" clip-rule="evenodd" stroke-linejoin="round" stroke-miterlimit="2">
  <path fill="#1398cd" d="M0 0h190v190H0z"/>
  <path d="m140.987 110.194-6.104 7.353a4.181 4.181 0 0 1-4.576.939l-18.316-9.412a.557.557 0 0 0-.124-.074.514.514 0 0 1 .124-.062l15.55-8.349c1.618-.866 4.882-.866 6.505 0l1.697.905c2.127 1.131 4.938 3.394 6.024 4.83.458.617.391 2.472-.78 3.881m-25.659 30.953a3.967 3.967 0 0 1-4.451.854l-.792-.436-2.987-1.657a1.925 1.925 0 0 1-.452-.306 2.88 2.88 0 0 1 .429-.333l20.132-12.417-11.879 14.295Zm-35.325 2.992a9.81 9.81 0 0 1-6.324-2.992l-5.492-6.613a1.64 1.64 0 0 1-.419-1.324c.118-.466.447-.853.888-1.046l3.654-1.968a7.078 7.078 0 0 1 3.179-.668 7.16 7.16 0 0 1 3.275.707l25.251 13.904H80.003Zm-26.795-27.655 16.636 8.926.232.124a1.309 1.309 0 0 1-.209.119l-3.649 1.957a3.383 3.383 0 0 1-1.589.362 3.897 3.897 0 0 1-2.914-1.233l-8.507-10.255Zm-5.317-11.059 10.985-14.661a3.764 3.764 0 0 1 4.304-.985l9.158 4.712.136.074a.766.766 0 0 1-.136.079l-21.11 11.387a9.052 9.052 0 0 1-3.959 1.074 1.724 1.724 0 0 1-.249 0 4.735 4.735 0 0 1 .854-1.697m17.111-22.773 8.366-11.172a3.568 3.568 0 0 1 2.789-1.278 3.094 3.094 0 0 1 1.459.334l7.557 4.027 12.162 6.477a.04.04 0 0 1 .034 0c.068 0 .124.073.17.096-.06.041-.122.077-.187.108l-16.02 8.603a7.668 7.668 0 0 1-3.393.702 7.503 7.503 0 0 1-3.202-.634l-9.169-4.729a1.725 1.725 0 0 1-.962-1.131 1.77 1.77 0 0 1 .396-1.403m14.52-19.17c5.657-7.133 12.626-15.273 15.143-17.343 1.516 1.069 4.74 4.361 7.506 7.744.338.351.493.841.419 1.323a1.648 1.648 0 0 1-.888 1.058l-17.694 9.401c-1.601.476-3.728.425-4.667-.068a.662.662 0 0 1-.373-.486 2.11 2.11 0 0 1 .566-1.629m34.85 6.318a1.671 1.671 0 0 1-.566 2.625l-7.523 4.027c-1.612.872-4.87.872-6.494 0l-12.173-6.471a1.566 1.566 0 0 1-.192-.107l.192-.113 16.546-8.909a3.66 3.66 0 0 1 4.225.933l5.985 8.015ZM132.4 93.829l-4.853-2.591-18.808-10s-.125-.074-.17-.108c.059-.042.122-.08.186-.113l7.512-4.033a3.713 3.713 0 0 1 4.237.933l11.924 15.918-.028-.006Zm-26.23 11.245a7.286 7.286 0 0 1-3.218-.656l-19.193-9.871-.107-.073a.504.504 0 0 0 .13-.068l16.019-8.587c1.618-.859 4.882-.871 6.511 0l18.836 10.035a.58.58 0 0 1 .147.074l-.192.113-15.55 8.343a7.6 7.6 0 0 1-3.394.707m18.865 16.495.367.232c-.109.101-.228.19-.356.266l-20.686 12.784c-1.499.927-4.621 1.001-6.166.141l-16.93-9.311a2.085 2.085 0 0 1-.249-.147l.249-.147 21.778-11.669c1.629-.872 4.95-.894 6.584-.057l6.788 3.496 8.598 4.418.023-.006Zm-71.352-10.748a.901.901 0 0 1-.198-.101l.215-.131L74.81 99.225c1.618-.876 4.95-.905 6.579-.062l19.198 9.877a.518.518 0 0 1 .125.067.318.318 0 0 0-.125.068L78.81 120.839c-1.63.877-4.893.877-6.511 0l-18.627-10.001Zm92.247-7.636a22.896 22.896 0 0 0-3.959-3.818c0-1.488-1.002-2.828-1.443-3.428l-15.9-21.15a8.392 8.392 0 0 0-4.763-3.06 7.022 7.022 0 0 0-1.364-5.091l-5.99-7.993a8.403 8.403 0 0 0-4.791-3.088 6.818 6.818 0 0 0-1.544-4.989c-8.129-9.888-10.799-9.888-11.67-9.888-1.227 0-3.569 0-19.051 19.566a7.358 7.358 0 0 0-1.635 5.057 8.487 8.487 0 0 0-4.61 3.049l-8.377 11.172a6.991 6.991 0 0 0-1.358 5.034 8.49 8.49 0 0 0-4.74 3.071l-10.985 14.668c-1.561 2.082-2.218 4.395-1.793 6.318.094.409.244.804.447 1.171-.102 1.59 1.057 3.021 1.617 3.694l13.695 16.528a8.833 8.833 0 0 0 4.904 2.908 6.79 6.79 0 0 0 1.59 4.916l5.481 6.618a14.715 14.715 0 0 0 10.312 4.836h28.99c2.658 0 3.886-.882 4.451-1.85a8.815 8.815 0 0 0 5.855-2.975l13.118-15.81c.984-1.182 2.455-3.275 2.658-5.255a8.714 8.714 0 0 0 3.79-2.551l6.092-7.354c2.557-3.077 2.964-7.602.945-10.3" fill="#fff" fill-rule="nonzero"/>
</svg>